<svg width="280px" height="150px" xmlns="http://www.w3.org/2000/svg">
    <!-- CMD Icon -->
    <g transform="translate(10,20) scale(0.2)">
        <path d="M400,288a110.931,110.931,0,0,0-48,11.188V212.813A111.767,111.767,0,1,0,288,112v48H224V112a113.05,113.05,0,1,0-64,100.812v86.375A111.767,111.767,0,1,0,224,400V352h64v48A112,112,0,1,0,400,288Zm0-224a48,48,0,1,1-48,48A48,48,0,0,1,400,64ZM112,448a48,48,0,1,1,48-48A48,48,0,0,1,112,448Zm0-288a48,48,0,1,1,48-48A48,48,0,0,1,112,160ZM288,288H224V224h64ZM400,448a48,48,0,1,1,48-48A48,48,0,0,1,400,448Z" fill="#000000"/>
    </g>
    
    <!-- SHIFT Icon -->
    <g transform="translate(110,20) scale(2)">
        <path d="M 20.7696 49.7500 L 35.2305 49.7500 C 38.5118 49.7500 40.2696 47.8281 40.2696 44.7344 L 40.2696 34.2344 L 49.8086 34.2344 C 51.7070 34.2344 53.2070 33.0625 53.2070 31.2813 C 53.2070 30.1797 52.6679 29.3594 51.8011 28.5156 L 30.8946 7.6797 C 30.0040 6.7656 29.0430 6.2500 28.0118 6.2500 C 26.9571 6.2500 26.0196 6.7656 25.1055 7.6797 L 4.1993 28.5156 C 3.3087 29.4063 2.7930 30.1797 2.7930 31.2813 C 2.7930 33.0625 4.2930 34.2344 6.2149 34.2344 L 15.7305 34.2344 L 15.7305 44.7344 C 15.7305 47.8281 17.4884 49.7500 20.7696 49.7500 Z" fill="#000000"/>
    </g>

    <!-- Backtick Icon -->
    <g transform="translate(230,150) scale(3)">
            <path d="M1.92-36.77L6.96-36.77Q7.49-35.71 8.28-34.39 9.07-33.07 9.96-31.82 10.85-30.58 11.57-29.66L11.57-29.66 11.57-29.09 8.74-29.09Q7.63-29.95 6.24-31.32 4.85-32.69 3.67-34.06 2.5-35.42 1.92-36.29L1.92-36.29 1.92-36.77Z" fill="#000000"></path>
    </g>
</svg>
